<?xml version="1.0" encoding="UTF-8" standalone="no"?>
<!DOCTYPE svg PUBLIC "-//W3C//DTD SVG 1.1//EN" "http://www.w3.org/Graphics/SVG/1.1/DTD/svg11.dtd">
<svg width="100%" height="100%" viewBox="0 0 700 700" version="1.1" xmlns="http://www.w3.org/2000/svg" xmlns:xlink="http://www.w3.org/1999/xlink" xml:space="preserve" xmlns:serif="http://www.serif.com/" style="fill-rule:evenodd;clip-rule:evenodd;stroke-linejoin:round;stroke-miterlimit:2;">
    <g transform="matrix(1.24999,0,0,1.24999,-87.674,1.42101e-14)">
        <path d="M350,0C502.61,0 627.46,124.85 627.46,277.46L627.46,282.546C627.46,435.156 502.61,560.006 350,560.006C197.39,560.006 72.54,435.156 72.54,282.546L72.54,277.46C72.54,124.85 197.39,-0 350,-0ZM370.328,286.35C389.539,286.35 404.047,283.112 414.012,276.608C423.981,270.182 430.621,262.237 433.86,252.924C437.184,243.611 439.356,228.088 440.364,206.424C441.301,182.311 446.719,164.334 456.536,152.565C466.364,140.788 482.466,134.87 504.845,134.87L504.845,142.96C496.833,143.538 491.345,146.639 488.45,152.35C485.563,158.046 484.118,170.182 484.118,188.67C484.118,215.744 481.309,236.611 475.598,251.334C469.895,266.064 458.41,278.049 441.235,287.221C423.981,296.397 400.368,301.299 370.329,302.022L370.329,369.104C370.329,385.557 371.267,396.249 373.224,401.084C375.095,405.994 379.142,409.897 385.275,412.861C391.408,415.818 400.869,417.334 413.728,417.334L413.728,425.131L286.348,425.131L286.348,417.334C298.914,417.189 308.231,415.818 314.364,413.146C320.504,410.545 324.622,406.799 326.649,401.74C328.664,396.76 329.751,385.853 329.751,369.107L329.751,302.025C299.419,301.303 275.883,296.467 259.067,287.439C242.313,278.42 230.907,266.576 224.911,251.99C218.914,237.404 215.883,216.178 215.883,188.447C215.883,170.685 214.582,158.845 211.918,152.998C209.239,147.151 203.684,143.823 195.164,142.963L195.164,134.874C209.465,135.167 220.937,137.475 229.676,141.663C238.411,145.928 245.422,153.362 250.696,164.112C256.036,174.803 258.993,188.956 259.716,206.428C260.724,228.018 262.747,243.393 265.927,252.713C269.099,262.025 275.817,269.967 285.931,276.541C296.107,283.115 310.689,286.353 329.755,286.353L329.755,194.158C329.755,177.619 328.739,166.928 326.86,162.096C324.989,157.264 321.013,153.362 314.946,150.545C308.888,147.729 299.352,146.287 286.352,146.135L286.352,138.268L413.732,138.268L413.732,146.135C400.732,146.287 391.197,147.729 385.138,150.475C379.072,153.213 375.095,157.049 373.224,161.952C371.271,166.932 370.33,177.624 370.33,194.163L370.33,286.358L370.328,286.35Z" style="fill:white;"/>
    </g>
</svg>
