<?xml version="1.0" standalone="no"?>
<!DOCTYPE svg PUBLIC "-//W3C//DTD SVG 20010904//EN"
 "http://www.w3.org/TR/2001/REC-SVG-20010904/DTD/svg10.dtd">
<svg version="1.0" xmlns="http://www.w3.org/2000/svg"
 width="994.000000pt" height="994.000000pt" viewBox="0 0 994.000000 994.000000"
 preserveAspectRatio="xMidYMid meet">
<metadata>
Created by potrace 1.14, written by Peter Selinger 2001-2017
</metadata>
<g transform="translate(0.000000,994.000000) scale(0.100000,-0.100000)"
fill="#000000" stroke="none">
<path d="M2839 9917 c19 -12 46 -30 60 -39 14 -10 53 -31 86 -48 65 -33 104
-57 180 -109 42 -30 46 -35 29 -42 -10 -4 -29 -8 -41 -8 -27 -1 -63 -46 -63
-78 0 -16 -8 -27 -26 -33 -15 -6 -35 -22 -46 -35 -11 -14 -26 -25 -33 -25 -8
0 -18 -7 -23 -16 -13 -23 -43 -10 -64 26 -43 75 -158 63 -160 -17 -1 -48 18
-71 76 -89 l53 -17 -4 -46 c-9 -102 -11 -107 -51 -124 -20 -9 -65 -21 -100
-26 -77 -12 -82 -15 -82 -51 0 -21 -6 -29 -23 -34 -13 -3 -29 -17 -35 -31 -16
-34 -16 -34 13 -45 34 -13 32 -31 -2 -28 -41 4 -35 -19 11 -45 53 -30 66 -52
42 -70 -11 -8 -16 -19 -12 -25 10 -16 -43 -80 -71 -87 -42 -10 -25 -91 30
-137 l32 -28 -35 12 c-42 14 -49 22 -96 111 -38 70 -83 117 -113 117 -9 0 -21
4 -27 8 -17 16 -116 52 -141 52 -16 0 -27 -7 -30 -20 -8 -29 -19 -25 -73 26
-62 59 -110 94 -128 94 -9 0 -39 -11 -67 -25 -112 -52 -187 -43 -262 32 -20
19 -39 31 -43 26 -4 -4 -12 -53 -19 -107 -9 -76 -16 -103 -30 -112 -14 -10
-21 -37 -31 -106 -11 -86 -10 -96 8 -138 26 -62 37 -126 22 -135 -7 -4 -24
-35 -39 -69 -29 -64 -55 -94 -65 -77 -4 6 -44 10 -94 9 -72 -2 -94 2 -129 20
-41 21 -43 21 -110 6 -37 -9 -86 -25 -109 -36 -33 -15 -46 -17 -69 -8 -20 8
-36 8 -54 1 -14 -6 -64 -15 -111 -20 -47 -5 -99 -14 -117 -22 -28 -11 -34 -11
-51 4 -25 23 -39 21 -58 -8 -9 -14 -20 -22 -25 -19 -10 6 -50 -35 -97 -100
-24 -33 -39 -46 -57 -46 -44 0 -61 -29 -69 -117 -7 -88 -3 -107 27 -140 21
-24 23 -22 -28 -38 -17 -5 -21 -60 -5 -70 6 -3 10 -16 10 -28 0 -13 9 -26 22
-32 28 -12 74 -78 58 -83 -6 -2 -36 9 -66 24 -57 29 -104 74 -104 100 0 31
-78 84 -124 84 -16 0 -32 -9 -42 -25 -15 -24 -15 -27 0 -44 9 -9 16 -23 16
-30 0 -33 91 -88 124 -75 7 3 24 -4 37 -15 40 -33 14 -44 -110 -45 l-111 -1 0
-49 c0 -39 3 -47 12 -38 7 7 28 12 47 12 l36 -1 -37 -20 c-59 -31 -70 -71 -47
-165 11 -42 13 -44 49 -44 33 0 40 5 68 49 20 30 32 62 32 83 0 47 49 101 88
96 21 -2 27 -8 27 -28 0 -27 54 -70 89 -70 26 0 81 35 81 52 0 7 15 14 33 16
25 3 38 -2 52 -21 10 -13 39 -31 62 -40 46 -18 84 -66 74 -92 -3 -8 3 -19 14
-25 16 -9 17 -14 8 -40 -5 -17 -8 -40 -5 -51 3 -11 -1 -35 -9 -54 -16 -38 -4
-35 -254 -56 -74 -6 -138 -13 -143 -16 -25 -15 13 -87 58 -109 39 -18 74 -13
116 17 25 17 42 19 136 17 l107 -3 7 -32 c3 -18 11 -39 16 -45 6 -7 18 -37 28
-67 16 -50 16 -56 1 -87 -8 -19 -11 -34 -6 -34 6 0 10 -9 10 -20 0 -11 -3 -20
-8 -20 -4 0 -13 -18 -19 -40 -12 -35 -11 -43 8 -75 12 -19 30 -40 40 -45 10
-6 16 -16 13 -24 -3 -7 2 -16 10 -19 9 -4 16 -15 16 -26 0 -11 9 -21 21 -24
18 -5 20 -11 15 -34 -4 -15 -13 -33 -21 -38 -11 -9 -10 -15 6 -35 18 -23 20
-24 33 -7 17 22 26 22 26 -3 0 -19 -4 -20 -99 -14 -69 5 -100 3 -105 -5 -4 -6
-36 -11 -80 -11 -58 0 -76 -4 -89 -18 -10 -10 -17 -24 -17 -30 0 -9 -4 -9 -18
-1 -27 17 -71 3 -82 -26 -5 -14 -16 -25 -24 -25 -12 0 -26 -20 -26 -36 0 -2
16 -4 35 -4 28 0 35 -4 35 -20 0 -16 -7 -20 -36 -20 -27 0 -37 -5 -41 -20 -4
-15 -14 -20 -38 -20 -18 0 -38 -7 -46 -17 -23 -29 -39 -62 -39 -80 0 -21 -42
-43 -81 -43 -15 0 -31 -4 -34 -10 -3 -5 -22 -10 -41 -10 -19 0 -34 -4 -34 -10
0 -5 14 -10 30 -10 25 0 30 -4 30 -23 0 -31 -29 -57 -63 -57 l-27 0 0 -706 c0
-614 2 -707 15 -720 8 -9 15 -20 15 -25 0 -5 -7 -9 -15 -9 -11 0 -15 -12 -15
-48 0 -39 5 -53 30 -80 16 -18 33 -44 36 -58 8 -32 24 -41 39 -21 18 25 25 21
25 -12 0 -35 14 -46 55 -46 27 0 30 -3 33 -37 2 -21 7 -38 13 -38 5 0 9 -9 9
-19 0 -11 5 -23 10 -26 6 -3 10 -22 10 -42 0 -27 3 -34 15 -29 21 8 65 -54 65
-92 0 -17 4 -34 10 -37 5 -3 10 -22 10 -40 0 -19 9 -50 20 -70 11 -20 20 -42
20 -49 0 -7 17 -46 38 -87 l38 -74 44 3 c25 2 54 4 65 5 17 2 21 -6 26 -53 5
-56 26 -110 41 -110 4 0 8 -9 8 -20 0 -12 7 -20 16 -20 9 0 18 -9 21 -20 5
-20 23 -28 23 -10 0 10 36 50 45 50 3 0 5 -9 5 -20 0 -12 7 -35 16 -52 12 -24
14 -36 6 -49 -9 -14 -7 -18 10 -22 17 -5 19 -12 16 -53 -3 -43 0 -50 22 -61
14 -7 35 -13 47 -13 34 0 45 -32 38 -105 -7 -58 -5 -65 14 -77 23 -14 28 -57
9 -76 -9 -9 -7 -16 6 -31 21 -23 47 -106 40 -126 -3 -8 4 -31 16 -50 l22 -36
-20 -6 c-13 -3 -23 -17 -28 -37 -3 -17 -13 -39 -21 -48 -8 -9 -17 -35 -20 -58
-4 -25 -12 -44 -22 -48 -51 -19 -60 -95 -26 -226 28 -110 26 -119 -32 -135
-40 -11 -58 -7 -93 24 -39 35 -113 58 -165 53 -41 -5 -53 -13 -124 -87 -45
-46 -91 -85 -108 -90 -18 -5 -66 -3 -129 7 -145 22 -199 21 -224 -6 -26 -27
-25 -32 3 -32 l22 -1 -22 -18 -23 -19 0 -871 0 -871 1145 0 c630 0 1145 3
1145 7 0 3 -40 45 -90 93 -89 86 -114 129 -67 114 12 -3 46 -27 75 -53 30 -25
66 -55 81 -66 15 -11 48 -37 73 -58 l45 -37 3672 0 3673 0 -55 45 c-58 47 -67
59 -59 87 6 23 45 36 50 17 3 -8 25 -34 51 -59 32 -31 45 -51 43 -67 -3 -22
-1 -23 78 -23 l81 0 -3 177 -3 177 -55 12 c-30 7 -71 13 -90 14 -39 0 -50 6
-66 35 -7 11 -20 19 -30 17 -11 -2 -59 -5 -109 -6 -49 -2 -108 -9 -129 -16
-35 -11 -41 -11 -53 6 -17 24 -16 36 5 60 41 45 70 141 52 173 -15 29 -36 26
-52 -6 -16 -35 -58 -44 -58 -14 0 11 5 23 11 27 6 3 9 17 6 31 -3 18 2 27 24
38 15 8 31 25 34 37 4 13 14 31 23 40 12 14 12 21 2 33 -9 11 -9 22 -1 46 6
18 11 51 11 75 0 24 5 46 10 49 6 3 10 12 10 20 0 10 -13 13 -47 12 l-48 -2
-8 -45 c-4 -25 -7 -57 -7 -72 0 -32 -24 -48 -63 -41 -15 3 -27 1 -27 -4 0 -14
22 -33 40 -33 12 0 45 -48 37 -56 -7 -7 -46 -7 -74 0 -28 6 -36 4 -58 -21 -13
-15 -25 -33 -25 -38 0 -18 -58 -80 -66 -72 -5 4 7 37 25 73 31 61 32 67 17 82
-12 12 -41 18 -103 22 -101 6 -116 18 -94 72 7 18 17 52 23 76 10 43 38 72 70
72 22 0 34 20 18 30 -7 4 -21 5 -32 2 -11 -3 -28 4 -43 18 -26 24 -50 18 -42
-11 5 -19 -12 -44 -35 -51 -8 -3 -7 -11 4 -27 19 -27 14 -51 -11 -51 -9 0 -33
11 -53 25 -20 14 -43 25 -51 25 -7 0 -37 12 -66 26 -48 25 -52 29 -47 55 7 34
-6 45 -67 52 -51 7 -127 41 -140 63 -4 8 -21 14 -36 14 -30 0 -81 33 -70 45
11 10 132 25 156 18 25 -6 32 -23 10 -23 -8 0 -22 -8 -31 -19 -16 -17 -15 -19
15 -25 47 -9 108 -7 129 4 14 7 34 7 65 -1 25 -6 49 -9 53 -5 12 12 -15 41
-37 39 -29 -4 -26 5 11 45 l33 33 -22 19 c-19 15 -20 20 -8 30 8 7 26 9 44 5
18 -4 40 -1 57 8 27 14 27 15 7 25 -11 6 -40 11 -64 11 -24 0 -70 0 -101 1
-45 0 -65 -4 -87 -21 -28 -21 -34 -21 -128 -11 -77 8 -114 17 -168 43 -39 19
-72 35 -75 37 -3 2 3 10 14 17 11 8 16 21 13 30 -8 18 -43 20 -51 3 -5 -11 -7
-11 -12 0 -3 6 -11 12 -19 12 -15 0 -17 -52 -3 -61 6 -4 7 -12 4 -18 -5 -8
-19 -2 -43 18 -34 28 -36 32 -35 94 0 36 3 74 6 84 6 18 0 19 -69 18 -95 -2
-104 7 -111 106 -5 69 -30 164 -60 234 -50 116 -77 164 -129 230 -18 22 -44
60 -59 85 -15 25 -43 59 -61 75 -55 49 -225 246 -225 260 0 7 -6 18 -14 24
-19 16 -40 88 -66 226 -11 61 -25 124 -30 140 -53 168 -66 204 -82 230 -10 17
-18 37 -18 45 0 9 -9 34 -21 55 -11 22 -31 71 -45 109 -13 39 -33 80 -45 92
-22 23 -51 117 -43 139 3 7 -3 15 -13 19 -22 9 -43 -18 -43 -54 0 -14 -6 -34
-13 -45 -7 -11 -19 -40 -27 -65 -7 -25 -18 -54 -25 -65 -6 -11 -19 -42 -29
-69 -15 -40 -20 -46 -28 -32 -6 11 -6 28 2 49 22 61 38 131 33 144 -3 7 -1 19
5 26 6 6 18 50 27 97 24 122 31 151 44 186 8 19 11 74 8 144 -3 103 -6 114
-30 145 -15 19 -27 40 -27 48 0 34 -31 26 -60 -15 -17 -22 -30 -45 -30 -50 0
-4 -5 -7 -12 -6 -6 2 -14 -6 -16 -17 -2 -11 -20 -37 -40 -58 -33 -34 -37 -36
-43 -18 -7 18 -57 30 -127 31 -31 0 -104 -39 -99 -53 6 -17 -11 -47 -27 -47
-8 0 -16 -8 -19 -19 -5 -20 -55 -37 -69 -23 -11 11 0 82 12 82 4 0 10 -9 13
-20 6 -24 37 -27 37 -4 0 26 -20 54 -38 54 -11 0 -25 14 -35 35 -20 43 -55 54
-92 29 -21 -14 -32 -15 -60 -7 -23 7 -48 7 -80 0 -42 -10 -49 -9 -61 7 -11 16
-107 44 -152 46 -21 0 -26 -30 -7 -50 11 -13 15 -28 11 -43 -5 -22 -20 -32
-79 -51 -16 -5 -18 -13 -12 -70 5 -42 3 -66 -4 -70 -6 -4 -11 -26 -11 -49 1
-37 2 -40 14 -25 19 25 27 23 59 -18 25 -30 34 -35 65 -32 l37 3 3 53 c2 36 7
52 15 49 16 -5 22 -206 7 -221 -18 -18 -10 -45 19 -62 40 -24 27 -47 -40 -69
-35 -12 -53 -24 -59 -41 -11 -27 -14 -28 -41 -13 -13 7 -18 17 -14 28 10 31
-18 44 -82 37 -32 -4 -96 -9 -143 -12 -83 -5 -86 -4 -128 25 -23 17 -44 31
-46 31 -2 0 -32 16 -66 35 -61 35 -100 39 -100 11 0 -7 -13 -25 -29 -40 -26
-25 -34 -28 -73 -22 -24 4 -61 8 -82 9 -35 2 -41 6 -52 37 -7 19 -13 50 -13
67 -1 27 5 36 32 50 20 11 49 16 77 15 44 -3 45 -2 65 39 20 42 20 43 113 65
52 12 103 26 115 31 12 6 56 27 98 47 42 20 80 36 85 36 5 0 30 18 57 41 38
33 47 47 47 73 0 19 9 45 21 60 17 22 19 29 8 42 -12 14 -14 14 -26 -2 -7 -10
-13 -28 -13 -40 0 -57 -97 -63 -198 -12 -17 9 -38 9 -85 0 -96 -19 -245 -18
-290 1 -60 26 -117 75 -117 102 0 13 -8 37 -17 53 -16 28 -16 30 11 64 28 37
62 54 69 34 3 -8 8 -8 17 1 9 8 12 53 12 155 0 174 -7 244 -28 275 -14 22 -13
28 12 81 25 52 27 67 26 164 l-1 107 37 11 c20 5 42 10 49 10 39 0 3 75 -46
96 -25 11 -31 19 -31 44 0 39 16 70 35 70 26 0 16 18 -12 24 -77 16 -165 26
-174 20 -6 -3 8 -19 31 -34 60 -40 87 -99 58 -128 -19 -19 -24 -15 -46 32 -25
53 -104 120 -157 134 -22 6 -92 14 -155 17 -63 4 -139 11 -169 16 -54 9 -88
35 -70 54 5 5 9 15 9 22 0 11 -4 11 -20 1 -11 -7 -20 -18 -20 -25 0 -7 -14
-10 -42 -8 -24 2 -46 4 -50 4 -5 1 -8 6 -8 11 0 6 13 10 29 10 43 0 47 17 7
30 -43 14 -63 35 -41 44 22 8 19 47 -5 53 -11 3 -20 12 -20 19 0 8 -6 17 -14
20 -9 3 -14 19 -13 40 1 27 4 33 16 28 9 -4 59 -9 111 -12 175 -9 163 -10 179
23 18 39 28 45 74 45 25 0 43 7 54 20 10 11 24 20 33 20 20 1 103 97 95 110
-3 5 -23 10 -45 10 -39 0 -64 25 -39 41 18 11 125 21 152 14 14 -4 37 0 54 8
32 17 87 11 138 -15 17 -8 50 -14 75 -13 25 1 55 -4 68 -12 14 -9 34 -12 48
-9 15 4 40 -2 65 -15 40 -20 43 -20 80 -3 21 9 41 25 44 35 7 20 24 27 70 29
49 3 55 1 55 -19 0 -10 11 -26 24 -34 22 -15 25 -15 41 3 18 20 56 22 86 4 28
-15 59 -82 66 -141 6 -56 6 -56 24 -34 l18 22 38 -24 c21 -13 49 -28 63 -32
14 -4 33 -16 43 -26 10 -11 24 -19 32 -19 17 0 30 -23 39 -70 4 -19 17 -57 29
-84 l21 -48 44 6 c25 3 52 1 64 -5 16 -9 30 -7 63 10 24 12 50 18 59 15 13 -5
16 0 16 25 0 39 21 49 64 31 17 -7 51 -16 76 -19 25 -4 68 -21 95 -37 28 -16
58 -28 67 -26 10 2 24 -8 34 -22 15 -24 15 -28 -1 -52 -14 -22 -22 -25 -47
-20 -16 3 -41 15 -55 26 -17 13 -41 20 -68 20 -29 0 -45 5 -49 15 -6 17 -36
21 -36 5 0 -23 -41 -50 -77 -50 -21 -1 -63 -10 -93 -21 -30 -12 -68 -22 -85
-23 -27 -1 -30 -4 -27 -32 5 -54 -8 -57 -185 -43 -87 6 -192 13 -233 15 -41 2
-137 6 -212 9 -99 5 -138 3 -138 -5 0 -6 6 -13 14 -16 22 -8 25 -26 15 -79 -6
-34 -6 -52 3 -62 9 -12 6 -19 -17 -37 l-28 -22 39 -21 c31 -15 40 -26 42 -50
2 -19 -4 -37 -14 -48 -25 -24 -30 -120 -11 -187 28 -97 37 -135 37 -155 0 -23
59 -83 83 -83 9 0 32 -14 52 -31 43 -38 44 -30 6 48 -49 101 -72 189 -95 368
-9 66 -10 104 -3 113 23 29 27 12 47 -168 4 -41 17 -97 29 -124 21 -47 22 -48
40 -32 40 36 35 76 -19 165 -30 49 -20 66 40 69 46 2 64 -8 40 -23 -13 -8 -13
-62 -1 -70 6 -3 31 -7 56 -9 25 -2 54 -11 65 -21 10 -9 24 -14 29 -10 6 3 11
2 11 -4 0 -5 -5 -13 -11 -16 -14 -9 22 -42 66 -61 19 -8 35 -18 35 -23 0 -4
20 -11 44 -14 45 -7 89 -31 141 -80 19 -17 36 -25 45 -20 8 3 33 8 55 10 102
9 105 11 105 50 0 20 7 45 17 55 15 17 15 19 -1 37 -25 28 -15 46 25 46 30 0
34 3 34 25 0 23 -3 25 -45 24 -25 -1 -58 -5 -75 -9 l-30 -8 21 24 c12 13 30
50 40 82 10 31 24 57 31 57 19 0 53 -37 53 -58 0 -25 20 -42 48 -42 16 0 26
-7 29 -21 5 -17 12 -20 42 -17 23 3 47 -2 68 -15 34 -20 58 -15 49 9 -9 22 16
26 56 9 47 -19 69 -50 61 -87 -8 -41 28 -78 77 -78 20 0 41 5 48 12 17 17 26
2 25 -42 -2 -35 1 -39 20 -37 13 1 21 -3 19 -11 -1 -7 9 -34 24 -61 14 -27 26
-58 27 -69 0 -11 4 -19 8 -16 16 10 32 -30 31 -81 0 -65 -35 -147 -58 -138
-10 3 -14 22 -14 60 0 40 -6 63 -22 86 -26 38 -40 49 -50 39 -9 -9 -9 -23 -5
-141 4 -79 5 -84 27 -88 38 -6 52 -23 46 -56 -7 -34 8 -57 35 -57 25 0 24 -28
-1 -55 -11 -12 -23 -43 -26 -69 -6 -40 -3 -52 16 -77 l22 -31 -21 -14 c-18
-13 -21 -25 -21 -84 0 -56 3 -68 14 -64 24 9 60 122 45 140 -8 9 -4 13 13 16
15 2 24 11 26 27 2 13 10 30 17 38 15 15 10 110 -6 128 -18 19 -8 26 32 23 41
-3 42 -4 54 -50 22 -87 86 -157 124 -134 5 4 22 1 36 -6 25 -11 29 -10 50 17
23 27 24 28 49 12 21 -14 27 -15 38 -3 8 7 34 22 59 33 53 24 150 94 203 147
39 39 67 44 119 21 12 -5 17 -3 17 9 0 9 -4 16 -10 16 -28 0 -3 46 63 115 53
55 76 88 85 119 8 31 24 53 61 85 28 23 51 47 51 53 0 6 29 42 65 79 36 38 65
73 65 79 0 13 18 51 38 81 44 67 88 127 119 162 24 27 33 47 33 72 0 24 6 37
20 45 11 6 30 30 41 53 33 64 80 114 151 159 85 55 108 77 108 105 0 16 16 40
46 69 26 24 50 44 54 44 13 0 140 153 140 168 0 8 16 37 36 64 30 43 35 55 29
87 -5 30 0 44 28 87 39 59 87 174 87 208 0 38 27 59 68 52 47 -7 68 7 76 49 6
28 12 35 29 35 29 0 188 -66 200 -82 5 -8 6 -221 3 -503 -4 -269 -9 -1388 -12
-2485 -4 -1097 -8 -2078 -9 -2180 -3 -174 7 -346 21 -384 4 -10 17 -16 35 -16
33 0 35 -5 14 -26 -18 -19 -19 -48 -2 -61 6 -5 38 -15 69 -22 46 -10 61 -18
75 -41 9 -16 43 -43 75 -60 l58 -31 0 3054 0 3055 -22 5 -22 6 22 24 c19 20
22 35 22 96 l0 74 -41 -7 c-23 -4 -55 -14 -71 -22 -27 -14 -31 -14 -47 0 -10
9 -34 16 -55 16 -33 0 -39 -5 -66 -47 -16 -27 -36 -55 -45 -64 -20 -21 -19
-26 5 -32 13 -3 18 -10 14 -21 -5 -12 -21 -16 -68 -16 -35 0 -71 -6 -86 -15
-14 -8 -33 -18 -43 -21 -32 -12 3 -24 69 -24 46 0 65 -4 77 -18 10 -10 17 -22
17 -25 0 -12 -38 -7 -42 5 -5 13 -41 -18 -51 -45 -5 -12 -17 -15 -57 -12 -78
6 -116 22 -130 55 -6 16 -9 38 -5 49 4 14 -1 34 -14 55 -17 27 -19 39 -11 61
15 40 12 77 -10 120 -11 22 -20 49 -20 61 0 11 -9 47 -20 79 -11 32 -20 78
-20 103 l0 44 48 -6 c108 -12 107 -12 107 9 0 16 7 20 29 18 30 -2 76 -38 76
-58 0 -24 46 -56 71 -50 38 10 75 44 63 59 -44 60 -47 68 -37 85 8 12 23 15
64 13 30 -1 64 0 76 3 30 7 38 40 19 70 -24 36 -62 33 -100 -9 -18 -18 -45
-35 -61 -38 -17 -3 -38 -9 -47 -13 -13 -5 -25 1 -45 24 -32 36 -56 39 -80 11
-28 -33 -81 -21 -115 25 -17 23 -17 24 17 44 27 16 35 27 35 49 0 33 -27 62
-56 62 -11 0 -33 -13 -49 -30 -36 -37 -54 -38 -87 -2 -36 37 -42 79 -24 150 9
33 16 70 16 83 0 13 5 41 11 62 8 30 16 39 40 44 34 6 40 38 9 46 -49 13 -7
100 126 262 19 23 34 53 34 67 0 14 7 31 15 38 8 7 23 38 31 69 9 30 26 68 37
82 29 40 15 53 -54 45 -32 -3 -61 -2 -64 3 -9 16 -118 1 -162 -22 -49 -25 -60
-19 -44 21 24 57 -14 102 -93 109 -58 5 -61 15 -19 49 51 40 109 57 153 44 78
-22 145 45 92 93 -32 29 -73 21 -122 -23 -47 -43 -75 -48 -75 -15 0 29 14 45
40 45 13 0 27 10 35 24 29 55 -21 112 -76 87 -26 -11 -26 -13 -20 -79 7 -74 5
-77 -84 -150 -95 -77 -137 -93 -126 -47 9 35 -8 31 -35 -7 -12 -18 -24 -35
-26 -37 -2 -2 -14 2 -28 9 -19 10 -30 11 -50 2 -14 -7 -35 -12 -46 -12 -28 0
-95 51 -135 104 -19 25 -48 53 -65 61 -25 14 -28 18 -18 36 15 29 98 79 130
79 15 0 30 4 33 9 3 5 28 14 56 21 59 14 71 28 42 48 -39 26 -40 24 128 156
30 23 60 45 67 47 6 2 69 54 138 114 70 61 148 124 173 142 25 18 61 47 81 66
20 19 68 53 107 75 43 25 81 56 97 79 32 46 31 41 12 87 l-15 36 -33 -16 c-17
-9 -44 -28 -58 -43 -39 -40 -177 -163 -202 -179 -12 -8 -26 -20 -32 -27 -24
-28 -275 -251 -330 -293 -33 -25 -85 -66 -115 -92 -30 -25 -65 -52 -76 -60
-12 -8 -68 -51 -124 -95 -56 -44 -120 -92 -142 -107 -23 -15 -51 -37 -64 -49
-29 -27 -50 -20 -69 26 -8 19 -22 51 -30 70 -27 63 -13 119 42 175 21 21 24
32 21 71 -6 54 -72 165 -115 192 -55 34 -93 74 -99 104 -5 25 -1 34 22 52 16
12 36 20 46 17 31 -8 82 14 107 45 21 27 22 33 11 60 -16 37 -57 60 -86 49
-22 -8 -55 -50 -67 -82 -7 -21 -47 -24 -47 -5 0 7 7 22 15 33 8 10 15 29 15
42 0 42 58 122 87 122 7 0 18 11 25 25 22 41 102 85 154 85 73 0 111 56 102
151 -2 27 -8 35 -26 37 -27 4 -102 -30 -127 -58 -40 -44 -48 -10 -12 48 13 20
29 53 36 72 6 19 28 52 48 72 l37 38 -57 0 c-31 0 -57 -4 -57 -9 0 -5 -6 -16
-14 -23 -8 -8 -26 -38 -40 -66 -40 -78 -56 -66 -56 39 l0 59 -65 0 c-63 0 -65
-1 -65 -25 0 -16 15 -42 39 -68 30 -33 42 -56 52 -102 l12 -60 -36 -56 c-20
-31 -39 -69 -43 -85 -4 -16 -15 -42 -24 -59 -10 -16 -21 -45 -25 -62 -12 -58
-41 -33 -51 43 -12 91 -48 131 -105 119 -16 -4 -37 -18 -45 -31 -26 -39 -11
-87 46 -146 53 -55 80 -112 62 -130 -12 -12 -32 -2 -32 17 0 8 -5 26 -12 40
-10 22 -17 26 -40 21 -21 -4 -28 -2 -28 9 0 9 -4 23 -9 33 -6 9 -12 29 -15 44
-4 15 -15 29 -26 33 -10 3 -41 29 -67 58 -79 85 -108 109 -148 123 -29 10 -43
10 -53 2 -10 -9 -20 -3 -43 25 -30 36 -79 67 -107 67 -9 0 -24 -7 -34 -17 -17
-15 -19 -15 -39 3 -15 14 -38 19 -81 21 -56 1 -62 4 -80 32 -25 38 -42 44
-107 31 -47 -9 -58 -7 -86 10 -19 11 -50 20 -73 20 -24 0 -44 6 -49 14 -12 21
-116 28 -142 9 -18 -12 -25 -12 -37 -2 -11 9 -23 9 -55 0 -35 -10 -43 -10 -67
7 -63 44 -187 66 -233 42 -14 -8 -35 -7 -77 5 -51 14 -174 15 -1132 11 -591
-2 -1084 -5 -1095 -7 -11 -2 -33 0 -49 4 -23 6 -27 5 -23 -7 3 -8 0 -22 -8
-33 -13 -17 -14 -17 -37 3 -39 36 -46 37 -216 42 -180 4 -172 8 -125 -54 40
-54 25 -88 -26 -58 -37 22 -66 12 -56 -19 16 -52 12 -62 -29 -65 -28 -2 -44 2
-60 17 -12 11 -36 26 -54 32 -17 6 -34 19 -37 30 -4 10 -13 19 -22 19 -9 0
-34 15 -57 34 -74 60 -94 66 -223 66 l-118 0 34 -23z m5123 -1273 c11 -23 10
-29 -11 -45 -32 -26 -57 -24 -78 7 -16 26 -16 27 6 45 34 28 69 24 83 -7z m86
-96 c7 -7 12 -24 12 -40 0 -23 -5 -28 -35 -34 -48 -9 -65 0 -65 34 0 35 16 52
50 52 14 0 31 -5 38 -12z m-5385 -55 c1 -12 9 -28 17 -37 9 -12 10 -20 2 -28
-13 -13 -46 58 -37 80 7 18 14 12 18 -15z m6335 -251 c27 -30 30 -38 17 -40
-10 -2 -31 12 -50 32 -18 20 -40 36 -49 36 -9 0 -16 5 -16 11 0 23 66 -3 98
-39z m-533 -150 c-3 -3 -11 0 -18 7 -9 10 -8 11 6 5 10 -3 15 -9 12 -12z m15
-81 c0 -11 23 -46 51 -78 28 -32 57 -71 64 -88 7 -16 22 -41 33 -55 11 -14 38
-61 60 -105 39 -78 54 -128 39 -132 -19 -6 -67 11 -72 27 -3 9 -27 38 -53 63
-53 51 -91 98 -140 171 -34 50 -34 51 -27 133 6 73 9 83 26 83 12 0 19 -7 19
-19z m-400 -126 c0 -3 -9 -5 -20 -5 -11 0 -20 7 -20 15 0 13 4 14 20 5 11 -6
20 -13 20 -15z m142 -35 c9 -47 -8 -67 -40 -44 -35 24 -26 88 11 82 15 -2 23
-13 29 -38z m168 -102 c76 -52 64 -91 -19 -63 -62 20 -67 28 -44 60 22 30 23
30 63 3z m457 -203 c3 -9 2 -19 -1 -23 -8 -8 -38 10 -44 26 -6 18 38 14 45 -3z
m74 -933 c46 -30 78 -62 62 -62 -14 0 -114 41 -140 58 -13 8 -20 18 -17 23 10
17 50 9 95 -19z m189 -72 c22 -22 28 -65 8 -57 -65 25 -98 44 -98 55 0 8 6 12
15 9 8 -4 17 -2 20 3 10 16 34 11 55 -10z m-682 -109 c3 -9 -5 -7 -22 4 -14
10 -26 22 -26 27 0 13 43 -15 48 -31z m-7490 -281 c26 -35 32 -120 8 -120 -18
0 -26 22 -26 70 0 21 -4 42 -10 45 -12 7 -13 35 -2 35 5 0 18 -13 30 -30z
m2800 -759 c-14 -12 -24 -15 -27 -8 -2 6 7 19 20 30 14 12 25 15 27 8 2 -6 -7
-20 -20 -30z m2617 18 c11 -5 38 -15 60 -23 l40 -14 -28 -7 c-28 -7 -153 21
-163 37 -15 24 43 29 91 7z m-640 -50 c4 -6 -2 -20 -12 -32 -11 -12 -30 -38
-42 -59 -34 -57 -61 -60 -61 -6 0 31 13 62 38 91 17 19 67 23 77 6z m-655 -60
c0 -11 -4 -17 -10 -14 -5 3 -10 13 -10 21 0 8 5 14 10 14 6 0 10 -9 10 -21z
m1819 -24 c30 -15 41 -33 41 -68 0 -12 9 -28 20 -35 34 -21 41 -54 18 -79 -20
-21 -20 -24 -5 -54 11 -24 12 -39 5 -60 -11 -31 -32 -38 -42 -14 -3 8 -12 15
-20 15 -7 0 -16 6 -19 13 -5 13 7 99 21 158 11 42 2 58 -45 83 -21 10 -33 24
-33 36 0 24 20 26 59 5z m-2430 -64 c12 -21 5 -31 -20 -31 -22 0 -33 16 -25
35 8 21 33 19 45 -4z m675 -17 c27 -11 23 -36 -37 -204 -58 -165 -118 -262
-236 -383 -60 -62 -63 -68 -37 -61 l30 7 -22 -31 c-12 -16 -22 -37 -22 -46 0
-9 -8 -19 -17 -23 -10 -4 -45 -29 -78 -57 -33 -27 -61 -51 -62 -51 -2 -1 -6
-29 -9 -63 -5 -44 -3 -62 5 -62 6 0 11 -18 11 -45 0 -42 -2 -45 -27 -47 -66
-3 -116 -23 -128 -50 -15 -35 -65 -35 -89 -2 l-19 27 65 61 c36 34 84 77 106
97 37 31 42 41 42 76 0 24 -5 44 -12 46 -10 4 -10 8 1 15 9 7 10 11 2 17 -16
10 -41 -1 -41 -19 0 -7 -12 -22 -27 -32 -16 -9 -34 -25 -40 -35 -7 -9 -25 -20
-40 -24 -16 -3 -41 -19 -58 -34 -16 -15 -53 -38 -82 -49 -28 -12 -67 -36 -85
-52 -18 -17 -40 -30 -50 -30 -9 0 -34 21 -55 46 -21 26 -67 78 -102 115 -77
83 -75 89 44 135 11 4 139 8 285 9 251 1 267 3 313 24 67 31 61 45 -15 37 -35
-4 -76 -3 -93 2 -18 5 -62 5 -108 -1 -68 -8 -99 -6 -238 18 -88 14 -171 33
-186 40 -14 8 -46 20 -71 27 -30 9 -47 20 -53 36 -5 12 -13 22 -19 22 -6 0
-15 11 -20 24 -5 13 -21 32 -36 43 -60 41 -85 71 -79 96 5 18 1 29 -15 40 -23
16 -31 58 -34 182 l-1 60 33 -2 c50 -2 74 -28 70 -77 l-3 -41 85 -10 c47 -6
90 -14 97 -18 6 -4 24 -2 39 3 23 9 33 7 54 -8 14 -11 39 -22 55 -26 26 -6 30
-12 33 -43 2 -28 -4 -43 -23 -63 -20 -21 -23 -29 -13 -37 7 -6 79 -14 160 -18
l147 -7 7 26 c3 14 3 30 -1 35 -3 6 -2 11 4 11 5 0 11 -10 13 -22 2 -16 12
-24 33 -28 34 -6 167 22 172 36 2 5 -22 9 -54 7 -32 -1 -66 1 -75 3 -27 8 -22
42 10 73 22 23 35 27 62 24 80 -9 82 -11 78 -51 -2 -32 0 -37 17 -34 11 2 29
12 39 22 21 21 23 19 -31 36 -8 2 -13 21 -13 48 0 44 1 45 38 55 69 20 118 14
141 -15 12 -15 21 -40 21 -55 0 -16 4 -29 9 -29 5 0 16 -7 25 -15 13 -14 13
-20 -5 -61 -22 -48 -20 -65 5 -45 50 42 166 313 166 388 0 10 5 24 12 31 14
14 12 14 32 6z m-902 -54 c9 -23 8 -23 -12 -5 -22 20 -27 39 -8 33 6 -2 15
-15 20 -28z m434 -34 c11 -33 -61 -78 -101 -63 -12 5 -12 12 0 52 21 70 31 79
66 53 16 -12 32 -31 35 -42z m1589 -11 c0 -30 -39 -27 -43 3 -3 20 0 23 20 20
15 -2 23 -10 23 -23z m-1323 -28 c4 -6 0 -19 -8 -28 -17 -19 -18 -36 -1 -42 9
-3 9 -7 0 -17 -13 -14 -33 -5 -33 16 0 8 -5 14 -10 14 -10 0 -19 17 -34 67 -6
20 -5 21 36 11 23 -5 46 -14 50 -21z m1153 -1 c8 -19 17 -53 21 -75 4 -23 10
-44 15 -46 4 -3 36 -8 71 -11 73 -6 90 -17 65 -41 -15 -15 -18 -15 -34 -1 -19
17 -90 31 -138 27 -16 -1 -41 -2 -53 -1 -20 0 -23 -4 -19 -23 2 -15 -1 -26
-10 -29 -21 -9 -28 23 -14 72 8 31 9 48 1 56 -18 18 -11 40 27 73 20 18 41 33
45 33 5 0 15 -15 23 -34z m1095 -41 c18 -22 3 -57 -23 -53 -22 3 -33 28 -23
54 7 18 30 18 46 -1z m-1370 -15 c0 -5 -4 -10 -10 -10 -5 0 -10 5 -10 10 0 6
5 10 10 10 6 0 10 -4 10 -10z m-1236 -71 c-3 -5 -10 -7 -15 -3 -5 3 -7 10 -3
15 3 5 10 7 15 3 5 -3 7 -10 3 -15z m-138 -74 c-3 -8 0 -15 7 -15 8 0 7 -4 -3
-10 -19 -12 -32 8 -17 26 16 18 20 17 13 -1z m-916 -144 c0 -6 -4 -13 -10 -16
-5 -3 -10 1 -10 9 0 9 5 16 10 16 6 0 10 -4 10 -9z m1630 -886 c0 -30 -38 -67
-65 -63 -15 2 -21 12 -23 40 -3 33 -1 37 25 41 60 9 63 8 63 -18z m-187 -72
c11 -10 -13 -33 -34 -33 -18 0 -26 20 -12 33 8 9 38 9 46 0z m-4513 -89 c0 -8
-4 -14 -10 -14 -5 0 -10 9 -10 21 0 11 5 17 10 14 6 -3 10 -13 10 -21z m3546
-25 c24 -11 46 -29 49 -40 5 -14 12 -18 30 -13 96 24 205 -9 223 -68 13 -41
13 -148 1 -148 -5 0 -9 5 -9 10 0 24 -41 7 -73 -30 -29 -34 -38 -39 -63 -34
-29 5 -29 5 -29 -44 1 -44 4 -52 39 -83 21 -18 52 -35 67 -37 32 -3 34 0 19
28 -12 23 5 67 37 93 13 10 23 27 23 38 0 15 6 20 22 17 20 -3 23 -8 20 -40
-3 -35 -1 -38 22 -38 40 0 126 -82 163 -157 17 -36 39 -73 47 -82 9 -10 16
-22 16 -27 0 -22 42 -54 70 -54 16 0 31 -4 35 -9 3 -6 26 -13 50 -17 51 -7 66
-21 42 -39 -22 -16 -3 -35 34 -35 15 0 30 -4 34 -9 7 -12 -26 -31 -55 -31 -11
0 -32 -11 -45 -25 -13 -15 -26 -22 -29 -17 -3 5 -28 7 -56 4 -46 -4 -50 -3
-50 16 0 26 -30 44 -51 31 -22 -14 -31 -11 -24 10 8 25 -20 41 -60 35 l-30 -5
28 16 c16 10 27 24 27 38 0 30 -64 101 -85 94 -20 -8 -20 -67 0 -93 8 -10 15
-22 15 -26 0 -12 -35 -9 -47 3 -13 13 -63 4 -63 -10 0 -5 13 -14 29 -19 16 -6
34 -19 40 -31 6 -11 21 -21 33 -23 22 -3 23 -8 26 -88 2 -47 7 -89 12 -94 6
-6 10 -25 10 -43 0 -42 -21 -43 -51 -2 -24 35 -60 52 -71 35 -4 -6 -6 3 -5 19
2 24 7 29 23 27 11 -1 29 7 39 18 18 20 18 21 -1 35 -10 8 -31 15 -45 15 -31
0 -51 21 -48 47 4 35 -12 69 -46 92 -34 23 -39 35 -47 135 -2 16 -11 34 -21
40 -14 9 -24 5 -53 -27 l-37 -38 -30 53 c-17 29 -34 73 -39 98 -5 26 -17 52
-28 60 -23 17 -80 131 -82 166 -2 19 -8 24 -29 24 -30 0 -62 25 -56 44 2 6 21
11 42 11 36 0 39 2 46 34 10 46 3 58 -43 82 -33 17 -38 24 -32 42 8 29 57 86
73 87 3 0 24 -9 47 -21z m1422 -57 c6 -18 -55 -15 -61 2 -3 8 -1 17 6 19 17 6
50 -7 55 -21z m793 2 c16 -19 1 -36 -24 -28 -68 21 -73 25 -54 38 20 15 61 10
78 -10z m272 -34 c26 -11 49 -25 52 -30 4 -6 29 -22 57 -36 46 -23 51 -24 73
-10 32 21 48 20 69 -3 13 -15 14 -20 4 -25 -7 -3 -3 -3 10 0 47 12 134 -88
103 -119 -9 -9 -13 -6 -17 11 -9 31 -20 28 -33 -10 -7 -18 -19 -46 -27 -61 -8
-16 -14 -37 -14 -48 0 -12 -15 -25 -45 -39 -26 -12 -45 -27 -45 -37 0 -18 -60
-112 -84 -132 -22 -19 -68 29 -65 67 3 30 -8 72 -20 72 -21 0 -31 -30 -31 -90
0 -54 -4 -70 -20 -85 -11 -10 -20 -24 -20 -31 0 -21 -17 -25 -35 -7 -13 12
-23 14 -43 7 -22 -8 -28 -17 -33 -51 -3 -23 -10 -48 -17 -55 -6 -8 -17 -48
-24 -89 -13 -82 -14 -84 -45 -93 -17 -6 -20 -3 -16 12 2 11 -3 26 -12 36 -22
21 -42 10 -21 -12 29 -33 30 -69 2 -103 -14 -17 -26 -40 -26 -51 0 -15 -5 -19
-19 -15 -20 5 -81 -45 -81 -65 0 -6 -11 -8 -25 -6 -13 3 -22 2 -20 -2 2 -4
-10 -15 -28 -25 -18 -9 -44 -36 -58 -60 -23 -37 -33 -44 -70 -50 -24 -4 -53
-15 -64 -25 -28 -24 -108 -44 -150 -37 -19 3 -37 1 -40 -4 -8 -12 -72 -12 -80
1 -12 19 -104 60 -120 54 -8 -4 -37 -1 -63 6 -26 7 -94 12 -151 11 -92 -1
-106 1 -123 19 -12 13 -32 20 -54 20 -44 0 -76 31 -111 106 l-25 56 21 14 c12
8 21 21 21 28 0 8 9 24 19 37 15 19 17 28 9 43 -8 15 -8 21 2 24 8 3 24 16 36
29 13 14 28 22 33 18 6 -3 17 7 23 22 28 62 59 77 193 90 89 8 92 23 3 21 -75
-1 -98 4 -98 24 0 6 21 8 58 4 89 -9 100 -10 108 -18 4 -5 35 -8 70 -8 45 0
68 5 84 18 18 15 32 17 68 12 50 -8 69 -1 126 45 59 48 89 83 117 133 l26 47
64 0 c62 0 64 1 64 25 0 23 -4 25 -37 23 -42 -3 -44 1 -23 37 26 46 12 68 -22
34 -18 -17 -94 -16 -100 2 -7 20 56 56 105 62 26 2 52 9 59 14 7 5 22 8 35 7
13 -2 33 2 45 9 12 7 30 12 41 12 11 0 25 7 32 15 7 8 19 15 27 15 8 0 29 6
46 14 18 7 44 18 60 24 15 7 27 19 27 29 0 9 14 32 32 50 24 25 41 33 66 33
25 0 40 7 54 26 11 14 26 23 34 20 7 -3 16 -1 19 4 8 13 5 13 58 -10z m-5949
-56 c23 -9 20 -24 -4 -24 -11 0 -20 7 -20 15 0 17 2 18 24 9z m4857 -43 c35
-11 82 -19 104 -19 27 0 55 -9 87 -28 26 -16 47 -31 48 -34 0 -5 -13 -13 -104
-67 -21 -13 -52 -23 -70 -23 -17 0 -40 -8 -51 -16 -16 -12 -41 -15 -117 -12
-68 2 -101 -1 -110 -10 -17 -17 -36 -15 -65 8 -14 11 -32 20 -39 20 -23 0
-108 31 -125 46 -8 8 -22 14 -31 14 -20 0 -97 56 -105 77 -13 34 62 57 108 32
16 -8 25 -7 38 5 24 22 169 23 197 1 26 -19 52 -18 94 5 44 24 63 24 141 1z
m-971 -179 c0 -8 -1 -13 -3 -11 -1 2 -9 12 -16 22 -12 15 -12 17 3 11 9 -3 16
-13 16 -22z m1286 -56 c29 -22 5 -40 -40 -32 -33 6 -46 23 -29 39 11 12 48 8
69 -7z m-301 -76 c-3 -5 -17 -10 -31 -10 -13 0 -24 5 -24 10 0 6 14 10 31 10
17 0 28 -4 24 -10z m-1220 -201 c0 -7 -8 -15 -17 -17 -18 -3 -25 18 -11 32 10
10 28 1 28 -15z m808 -44 c26 -4 47 -10 47 -16 0 -5 -21 -9 -47 -9 -27 0 -57
-3 -68 -5 -27 -7 -49 9 -42 29 4 11 15 14 34 11 15 -2 49 -7 76 -10z m-420
-196 c-19 -19 -43 -2 -43 30 0 40 22 45 39 10 11 -22 12 -32 4 -40z m-163
-119 c0 -5 -2 -10 -4 -10 -3 0 -8 5 -11 10 -3 6 -1 10 4 10 6 0 11 -4 11 -10z
m-3330 -146 c0 -17 -22 -14 -28 4 -2 7 3 12 12 12 9 0 16 -7 16 -16z m4972
-16 c-7 -7 -12 -8 -12 -2 0 14 12 26 19 19 2 -3 -1 -11 -7 -17z m-1184 -16 c2
-7 -3 -12 -12 -12 -9 0 -16 7 -16 16 0 17 22 14 28 -4z m-3781 -39 c-3 -10 -5
-4 -5 12 0 17 2 24 5 18 2 -7 2 -21 0 -30z m3708 26 c10 -15 -1 -23 -20 -15
-9 3 -13 10 -10 16 8 13 22 13 30 -1z m115 -44 c0 -38 0 -38 -24 -29 -19 7
-21 50 -3 57 24 10 27 7 27 -28z m-3644 -28 c4 -4 1 -14 -7 -23 -11 -14 -11
-18 4 -29 10 -7 15 -19 12 -27 -5 -13 6 -16 54 -20 65 -5 77 -10 66 -28 -12
-19 -111 -7 -135 15 -17 16 -23 17 -30 6 -6 -11 -18 -7 -54 19 -45 32 -53 50
-40 85 6 14 17 16 65 13 32 -2 62 -7 65 -11z m6308 -36 c-6 -6 -24 19 -24 34
1 6 7 1 15 -9 8 -11 12 -22 9 -25z m-6189 19 c3 -5 1 -10 -4 -10 -6 0 -11 -11
-11 -24 0 -14 -4 -27 -8 -30 -4 -2 -8 7 -7 22 0 18 -8 30 -25 39 -25 13 -24
13 12 13 20 0 40 -4 43 -10z m3685 -15 c0 -16 -55 -22 -64 -6 -8 13 5 21 36
21 18 0 28 -5 28 -15z m-4016 -291 c11 -28 7 -35 -14 -24 -23 12 -27 40 -6 40
8 0 17 -7 20 -16z m2421 -14 c-3 -5 -10 -10 -16 -10 -5 0 -9 5 -9 10 0 6 7 10
16 10 8 0 12 -4 9 -10z m-3286 -226 c2 -2 2 -6 -1 -9 -9 -9 -58 6 -58 17 0 9
49 3 59 -8z m8561 -422 c0 -29 -21 -42 -65 -42 -41 0 -86 22 -73 35 10 10 66
23 106 24 25 1 32 -3 32 -17z m-403 -109 c3 -10 15 -30 25 -45 19 -27 17 -54
-3 -42 -5 3 -21 28 -34 55 -21 40 -23 49 -10 49 9 0 18 -8 22 -17z m273 -189
c0 -7 9 -18 20 -24 19 -10 28 -30 12 -30 -10 0 -92 78 -92 88 0 5 3 12 7 15 8
9 53 -32 53 -49z m-182 -52 c32 -32 49 -67 54 -109 4 -24 3 -43 -2 -43 -15 0
-61 82 -69 125 -9 50 -8 52 17 27z m509 -294 c13 -12 23 -27 23 -35 0 -7 5
-13 10 -13 6 0 10 -11 10 -25 0 -14 -4 -25 -10 -25 -5 0 -10 4 -10 9 0 4 -16
28 -35 52 -19 24 -35 47 -35 52 0 14 24 7 47 -15z m431 -216 c2 -7 -3 -12 -12
-12 -9 0 -16 7 -16 16 0 17 22 14 28 -4z m-190 -73 c23 -10 42 -23 42 -28 0
-6 9 -11 19 -11 26 0 36 -17 21 -35 -9 -11 -4 -16 27 -24 45 -13 90 -14 97 -3
7 11 87 5 100 -8 7 -7 -19 -10 -84 -10 -111 0 -134 -9 -95 -34 20 -13 24 -21
16 -30 -13 -16 -3 -76 13 -81 6 -2 23 -6 39 -9 35 -8 34 -17 -4 -45 -23 -17
-33 -20 -44 -11 -9 7 -30 9 -59 5 -60 -9 -65 16 -6 34 32 9 40 16 40 36 0 27
-44 80 -77 92 -12 4 -32 24 -45 43 -15 22 -36 38 -59 45 -20 5 -43 16 -51 22
-8 7 -43 16 -77 19 -33 4 -61 9 -61 13 0 3 12 15 27 27 23 18 36 20 102 16 42
-2 95 -12 119 -23z m682 -118 c0 -14 -52 -30 -85 -27 -16 1 -46 10 -65 18
l-35 16 93 1 c50 1 92 -3 92 -8z m-215 -94 c0 -26 -20 -25 -23 2 -3 16 1 22
10 19 7 -3 13 -12 13 -21z m75 -1 c0 -3 -4 -8 -10 -11 -5 -3 -10 -1 -10 4 0 6
5 11 10 11 6 0 10 -2 10 -4z m161 -26 c22 -12 26 -40 5 -40 -28 0 -46 12 -46
31 0 21 12 24 41 9z"/>
<path d="M3960 4810 c14 -11 33 -20 43 -21 9 -1 22 -2 29 -3 6 -1 13 4 15 11
4 12 -55 33 -92 33 -18 0 -18 -2 5 -20z"/>
<path d="M3466 9863 c-6 -14 -5 -15 5 -6 7 7 10 15 7 18 -3 3 -9 -2 -12 -12z"/>
<path d="M8852 8563 c-10 -19 -23 -183 -15 -183 3 0 18 12 33 28 16 15 42 39
59 54 38 33 38 45 5 86 -30 36 -68 42 -82 15z"/>
<path d="M9642 6858 c2 -31 10 -46 31 -62 29 -22 50 -17 71 16 16 26 -37 88
-75 88 -29 0 -30 -1 -27 -42z"/>
<path d="M4837 5866 c-9 -22 -1 -36 19 -36 18 0 18 11 1 34 -13 18 -14 18 -20
2z"/>
<path d="M4780 5852 c0 -10 22 -32 32 -32 4 0 8 9 8 20 0 13 -7 20 -20 20 -11
0 -20 -4 -20 -8z"/>
<path d="M5887 5766 c-7 -17 23 -46 47 -46 25 0 32 31 11 46 -24 18 -51 18
-58 0z"/>
<path d="M5104 5549 c-3 -6 0 -15 7 -20 22 -14 29 -11 29 11 0 21 -24 27 -36
9z"/>
<path d="M5840 4422 c0 -13 20 -28 63 -49 71 -35 97 -43 187 -53 36 -5 97 -13
135 -19 118 -20 223 -17 275 6 25 12 54 23 65 26 35 10 -116 0 -205 -13 -69
-10 -100 -10 -165 0 -82 13 -138 33 -287 99 -58 26 -68 26 -68 3z"/>
<path d="M6752 4397 l-22 -13 21 -22 c27 -29 43 -24 47 16 4 35 -8 40 -46 19z"/>
<path d="M7171 3893 c-13 -10 -34 -27 -48 -39 l-25 -20 27 -18 c24 -16 33 -17
66 -7 45 14 57 40 33 76 -19 30 -23 30 -53 8z"/>
<path d="M1 3844 c0 -11 3 -14 6 -6 3 7 2 16 -1 19 -3 4 -6 -2 -5 -13z"/>
<path d="M5516 3741 c-8 -13 3 -38 20 -45 8 -3 14 -12 14 -21 0 -8 7 -15 15
-15 19 0 20 48 1 73 -14 18 -41 23 -50 8z"/>
<path d="M8335 1660 c-27 -16 -64 -30 -82 -30 -37 0 -50 -15 -32 -36 8 -9 22
-13 38 -9 14 3 40 1 57 -4 26 -7 34 -5 53 15 13 13 29 24 37 24 23 0 64 23 64
36 0 17 -8 21 -50 28 -28 4 -46 -1 -85 -24z"/>
<path d="M8985 1220 c4 -6 11 -8 16 -5 14 9 11 15 -7 15 -8 0 -12 -5 -9 -10z"/>
<path d="M8815 1210 c-10 -16 16 -41 38 -38 30 4 31 23 2 36 -32 15 -32 15
-40 2z"/>
<path d="M9140 1020 c0 -5 4 -10 9 -10 6 0 13 5 16 10 3 6 -1 10 -9 10 -9 0
-16 -4 -16 -10z"/>
<path d="M9255 924 c-26 -40 -3 -54 29 -18 31 35 32 44 7 44 -10 0 -26 -12
-36 -26z"/>
<path d="M9524 529 c3 -17 6 -35 6 -40 0 -19 31 -8 39 14 10 25 -11 57 -37 57
-11 0 -13 -8 -8 -31z"/>
</g>
</svg>
