<?xml version="1.0" encoding="UTF-8" standalone="no"?>
<!DOCTYPE svg PUBLIC "-//W3C//DTD SVG 1.1//EN" "http://www.w3.org/Graphics/SVG/1.1/DTD/svg11.dtd">
<svg width="100%" height="100%" viewBox="0 0 1200 1200" version="1.1" xmlns="http://www.w3.org/2000/svg" xmlns:xlink="http://www.w3.org/1999/xlink" xml:space="preserve" xmlns:serif="http://www.serif.com/" style="fill-rule:evenodd;clip-rule:evenodd;stroke-linejoin:round;stroke-miterlimit:2;">
    <g transform="matrix(1.74395,0,0,1.74395,-446.061,-446.255)">
        <path style="fill:#ff7784;fill-rule:nonzero;" d="M599.44,259.77C587.502,259.895 576.78,270.961 577.026,282.903L577.026,388.653C576.858,400.626 587.71,411.637 599.674,411.637C611.643,411.637 622.494,400.625 622.322,388.653L622.322,282.903C622.572,270.801 611.533,259.641 599.435,259.77L599.44,259.77ZM393.23,335.543C385.14,336.445 377.753,342.07 374.722,349.625C371.691,357.184 373.144,366.355 378.367,372.602L446.316,455.692C453.323,466.137 469.73,468.567 479.461,460.606C489.195,452.645 490.07,436.075 481.234,427.129L413.285,344.039C408.59,338.094 400.765,334.777 393.23,335.543L393.23,335.543ZM800.69,335.543C794.971,336.371 789.616,339.481 786.061,344.039L718.112,427.129C709.901,436.184 711.05,452.07 720.479,459.848C729.909,467.625 745.717,465.719 753.034,455.926L820.983,372.602C826.819,365.661 827.874,355.079 823.518,347.122C819.163,339.169 809.682,334.356 800.694,335.54L800.69,335.543ZM541.16,471.743C538.351,471.72 535.449,471.743 532.668,471.977C510.414,473.88 488.117,483.543 470.617,500.774C435.824,535.032 431.683,588.329 461.886,622.574C504.023,666.582 539.999,716.687 583.396,759.484C591.818,768.191 607.533,768.191 615.955,759.484C656.143,716.086 697.346,668.062 737.465,622.574C767.668,588.324 763.527,535.027 728.735,500.774C711.235,483.544 688.938,473.879 666.684,471.977C644.43,470.075 620.75,476.305 605.106,494.637L599.68,501.012L594.254,494.637C580.563,478.598 560.824,471.91 541.168,471.739L541.16,471.743ZM536.441,517.063C547.793,516.094 555.765,519.419 559.8,524.145L582.448,550.583C590.921,560.505 608.421,560.505 616.893,550.583L639.541,524.145C643.572,519.422 651.545,516.094 662.9,517.063C674.252,518.032 687.525,523.676 697.111,533.114C717.607,553.294 717.685,576.493 703.482,592.598L599.672,710.388L495.862,592.598C481.655,576.489 481.737,553.293 502.233,533.114C511.819,523.677 525.092,518.032 536.444,517.063L536.441,517.063ZM280.451,524.618C269.627,525.434 260.17,535.063 259.541,545.907C258.912,556.751 267.197,567.407 277.853,569.469L383.553,592.129C395.166,594.601 407.979,586.277 410.451,574.66C412.924,563.043 404.604,550.222 392.99,547.75L287.29,525.09C284.943,524.445 282.466,524.73 280.446,524.617L280.451,524.618ZM915.831,524.618C914.562,524.672 913.3,524.829 912.058,525.09L806.358,547.75C794.745,550.223 786.428,563.043 788.897,574.66C791.366,586.277 804.182,594.601 815.795,592.129L921.495,569.465C932.585,567.235 940.921,555.633 939.503,544.406C938.085,533.179 927.128,524.015 915.835,524.613L915.831,524.618ZM409.511,690.568C406.011,690.876 402.589,692.021 399.601,693.872L309.003,746.747C298.089,752.322 293.558,767.665 299.694,778.278C305.831,788.891 321.378,792.614 331.651,785.931L422.249,733.056C431.292,728.13 436.077,716.505 433.116,706.638C430.156,696.771 419.768,689.7 409.507,690.568L409.511,690.568ZM786.771,690.568C777.029,691.103 768.091,698.646 765.927,708.162C763.759,717.677 768.552,728.353 777.099,733.053L867.697,785.928C877.97,792.611 893.521,788.889 899.654,778.275C905.791,767.662 901.26,752.318 890.346,746.744L799.748,693.869C795.884,691.502 791.295,690.334 786.771,690.565L786.771,690.568ZM523.941,796.088C514.324,796.201 505.175,803.139 502.472,812.377L472.273,910.572C468.754,921.943 475.89,935.494 487.253,939.017C498.62,942.54 512.163,935.4 515.683,924.029L545.882,825.834C550.382,812.146 538.339,795.822 523.941,796.092L523.941,796.088ZM674.701,796.088C660.537,796.267 649.041,812.369 653.467,825.83L683.666,924.025C687.186,935.396 700.732,942.537 712.096,939.013C723.463,935.489 730.6,921.939 727.076,910.568L696.877,812.373C694.108,802.912 684.553,795.896 674.697,796.084L674.701,796.088Z"/>
    </g>
</svg>
