<?xml version="1.0" encoding="UTF-8" standalone="no"?>
<!DOCTYPE svg PUBLIC "-//W3C//DTD SVG 1.1//EN" "http://www.w3.org/Graphics/SVG/1.1/DTD/svg11.dtd">
<svg width="100%" height="100%" viewBox="0 0 1200 800" version="1.1" xmlns="http://www.w3.org/2000/svg" xmlns:xlink="http://www.w3.org/1999/xlink" xml:space="preserve" xmlns:serif="http://www.serif.com/" style="fill-rule:evenodd;clip-rule:evenodd;stroke-linejoin:round;stroke-miterlimit:2;">
    <g transform="matrix(1.11567,0,0,1.11567,-69.4049,-269.405)">
        <path style="fill:#ffffff;" d="M269.02,666.26C162.89,676.494 72.66,705.44 72.66,705.44C72.66,705.44 371.34,987.32 549.15,873.6C523.482,876.838 497.736,874.862 472.201,867.256C382.881,840.651 316.641,751.546 273.141,673.716C271.754,671.236 270.379,668.747 269.02,666.251L269.02,666.26Z"/>
        <path style="fill:#ffffff;" d="M650.91,873.63C828.73,987.25 1127.34,705.43 1127.34,705.43C1127.34,705.43 1037,676.45 930.79,666.231C929.427,668.727 928.052,671.219 926.665,673.7C917.114,690.79 906.95,707.555 896.052,723.821C855.568,784.251 799.458,845.841 727.592,867.251C702.143,874.829 676.483,876.817 650.901,873.626L650.91,873.63Z"/>
        <path style="fill:#ffffff;" d="M624.73,849.03C751.96,885.885 848.13,775.639 910.23,664.52C964.734,566.997 993.003,468.8 993.003,468.8C993.003,468.8 896.944,490.62 798.363,537.675C773.664,549.456 748.808,562.823 725.265,577.831C725.749,580.71 726.21,583.585 726.648,586.468C742.808,693.138 723.648,796.458 624.738,849.028L624.73,849.03Z"/>
        <path style="fill:#ffffff;" d="M721.55,557.93C743.695,544.211 766.753,531.899 790.249,520.688C792.757,519.493 795.268,518.309 797.788,517.133C793.604,412.433 770.878,323.083 770.878,323.083C770.878,323.083 727.929,363.317 680.12,423.323C681.511,426.819 682.882,430.319 684.233,433.827C699.639,473.831 712.913,515.628 721.553,557.937L721.55,557.93Z"/>
        <path style="fill:#ffffff;" d="M532.12,443.25C515.065,487.922 499.432,538.75 491.776,589.29C491.784,589.298 491.792,589.302 491.803,589.31C477.596,683.111 490.842,775.9 573.483,826.46C578.55,829.561 583.874,832.499 589.471,835.272C592.85,836.944 596.323,838.557 599.897,840.104C706.097,794.131 723.627,692.314 708.017,589.294C700.209,537.751 684.103,485.904 666.65,440.594C635.423,359.516 599.892,299.374 599.892,299.374C599.892,299.374 563.58,360.835 532.115,443.264L532.12,443.25Z"/>
        <path style="fill:#ffffff;" d="M428.92,323.08C413.682,382.986 404.424,453.34 401.99,517.12C404.517,518.296 407.037,519.483 409.549,520.683C433.041,531.898 456.1,544.206 478.244,557.925C486.693,516.562 499.572,475.701 514.521,436.535C516.36,431.714 518.239,426.906 520.153,422.104C495.774,390.362 441.735,335.085 428.915,323.073L428.92,323.08Z"/>
        <path style="fill:#ffffff;" d="M474.54,577.84C450.997,562.836 426.142,549.473 401.442,537.684C302.856,490.629 206.802,468.809 206.802,468.809C206.802,468.809 235.072,567.008 289.583,664.539C351.685,775.649 447.843,885.879 575.063,849.039C571.2,846.98 567.395,844.812 563.665,842.527C475.688,788.703 459.495,692.347 471.626,597.717L471.485,597.612L473.173,586.479C473.61,583.6 474.071,580.721 474.552,577.842L474.54,577.84Z"/>
    </g>
</svg>
