<?xml version="1.0" encoding="UTF-8" standalone="no"?>
<!DOCTYPE svg PUBLIC "-//W3C//DTD SVG 1.1//EN" "http://www.w3.org/Graphics/SVG/1.1/DTD/svg11.dtd">
<svg width="100%" height="100%" viewBox="0 0 500 500" version="1.1" xmlns="http://www.w3.org/2000/svg" xmlns:xlink="http://www.w3.org/1999/xlink" xml:space="preserve" xmlns:serif="http://www.serif.com/" style="fill-rule:evenodd;clip-rule:evenodd;">
    <g transform="matrix(1,0,0,1,-250,-99.9836)">
        <clipPath id="_clip1">
            <rect x="250" y="100.984" width="500" height="499.016"/>
        </clipPath>
        <g clip-path="url(#_clip1)">
            <rect x="0" y="0" width="1000" height="700" style="fill:white;"/>
        </g>
    </g>
    <g transform="matrix(1,0,0,1,-250,-99.9836)">
        <rect x="250" y="378" width="500" height="222" style="fill:rgb(245,73,73);"/>
    </g>
    <g transform="matrix(1,0,0,1,-250,-99.9836)">
        <path d="M425.818,423.6L425.818,438.8L408.636,438.8L408.636,454L374.273,454L374.273,438.8L357.091,438.8L357.091,423.6L339.909,423.6L339.909,438.8L322.727,438.8L322.727,454L288.364,454L288.364,438.8L271.182,438.8L271.182,423.6L254,423.6L254,378L271.182,378L271.182,362.8L288.364,362.8L288.364,347.6L305.545,347.6L305.545,332.4L322.727,332.4L322.727,317.2L339.909,317.2L339.909,302L357.091,302L357.091,317.2L374.273,317.2L374.273,332.4L391.455,332.4L391.455,347.6L408.636,347.6L408.636,362.8L425.818,362.8L425.818,378L443,378L443,423.6L425.818,423.6Z" style="fill:rgb(245,73,73);fill-rule:nonzero;"/>
    </g>
    <g transform="matrix(1,0,0,1,-250,-99.9836)">
        <path d="M728.818,423.6L728.818,438.8L711.636,438.8L711.636,454L677.273,454L677.273,438.8L660.091,438.8L660.091,423.6L642.909,423.6L642.909,438.8L625.727,438.8L625.727,454L591.364,454L591.364,438.8L574.182,438.8L574.182,423.6L557,423.6L557,378L574.182,378L574.182,362.8L591.364,362.8L591.364,347.6L608.545,347.6L608.545,332.4L625.727,332.4L625.727,317.2L642.909,317.2L642.909,302L660.091,302L660.091,317.2L677.273,317.2L677.273,332.4L694.455,332.4L694.455,347.6L711.636,347.6L711.636,362.8L728.818,362.8L728.818,378L746,378L746,423.6L728.818,423.6Z" style="fill:rgb(245,73,73);fill-rule:nonzero;"/>
    </g>
    <g transform="matrix(1,0,0,1,-250,-99.9836)">
        <path d="M578.818,363.4L578.818,378.7L561.636,378.7L561.636,394L527.273,394L527.273,378.7L510.091,378.7L510.091,363.4L492.909,363.4L492.909,378.7L475.727,378.7L475.727,394L441.364,394L441.364,378.7L424.182,378.7L424.182,363.4L407,363.4L407,317.5L424.182,317.5L424.182,302.2L441.364,302.2L441.364,286.9L458.545,286.9L458.545,271.6L475.727,271.6L475.727,256.3L492.909,256.3L492.909,241L510.091,241L510.091,256.3L527.273,256.3L527.273,271.6L544.455,271.6L544.455,286.9L561.636,286.9L561.636,302.2L578.818,302.2L578.818,317.5L596,317.5L596,363.4L578.818,363.4Z" style="fill:rgb(245,73,73);fill-rule:nonzero;"/>
    </g>
    <g transform="matrix(1,0,0,1,-250,-99.9836)">
        <path d="M483.818,477.6L483.818,462.3L466.636,462.3L466.636,447L432.273,447L432.273,462.3L415.091,462.3L415.091,477.6L397.909,477.6L397.909,462.3L380.727,462.3L380.727,447L346.364,447L346.364,462.3L329.182,462.3L329.182,477.6L312,477.6L312,523.5L329.182,523.5L329.182,538.8L346.364,538.8L346.364,554.1L363.545,554.1L363.545,569.4L380.727,569.4L380.727,584.7L397.909,584.7L397.909,600L415.091,600L415.091,584.7L432.273,584.7L432.273,569.4L449.455,569.4L449.455,554.1L466.636,554.1L466.636,538.8L483.818,538.8L483.818,523.5L501,523.5L501,477.6L483.818,477.6Z" style="fill:rgb(210,55,55);fill-rule:nonzero;"/>
    </g>
    <g transform="matrix(1,0,0,1,-250,-99.9836)">
        <path d="M672.818,477.6L672.818,462.3L655.636,462.3L655.636,447L621.273,447L621.273,462.3L604.091,462.3L604.091,477.6L586.909,477.6L586.909,462.3L569.727,462.3L569.727,447L535.364,447L535.364,462.3L518.182,462.3L518.182,477.6L501,477.6L501,523.5L518.182,523.5L518.182,538.8L535.364,538.8L535.364,554.1L552.545,554.1L552.545,569.4L569.727,569.4L569.727,584.7L586.909,584.7L586.909,600L604.091,600L604.091,584.7L621.273,584.7L621.273,569.4L638.455,569.4L638.455,554.1L655.636,554.1L655.636,538.8L672.818,538.8L672.818,523.5L690,523.5L690,477.6L672.818,477.6Z" style="fill:rgb(210,55,55);fill-rule:nonzero;"/>
    </g>
    <g transform="matrix(1,0,0,1,-250,-99.9836)">
        <path d="M638.455,584.6L638.455,600L552.546,600L552.546,584.6L569.727,584.6L569.727,569.3L586.909,569.3L586.909,554L604.091,554L604.091,569.3L621.273,569.3L621.273,584.6L638.455,584.6Z" style="fill:white;fill-rule:nonzero;"/>
    </g>
    <g transform="matrix(1,0,0,1,-250,-99.9836)">
        <path d="M578.818,347.4L578.818,332.2L561.636,332.2L561.636,317L527.273,317L527.273,332.2L510.091,332.2L510.091,347.4L492.909,347.4L492.909,332.2L475.727,332.2L475.727,317L441.364,317L441.364,332.2L424.182,332.2L424.182,347.4L407,347.4L407,393L424.182,393L424.182,408.2L441.364,408.2L441.364,423.4L458.545,423.4L458.545,438.6L475.727,438.6L475.727,453.8L492.909,453.8L492.909,469L510.091,469L510.091,453.8L527.273,453.8L527.273,438.6L544.455,438.6L544.455,423.4L561.636,423.4L561.636,408.2L578.818,408.2L578.818,393L596,393L596,347.4L578.818,347.4Z" style="fill:rgb(210,55,55);fill-rule:nonzero;"/>
    </g>
    <g transform="matrix(1,0,0,1,-250,-99.9836)">
        <path d="M552.182,354.4L552.182,364.8L564,364.8L564,390L552.182,390L552.182,400.4L540.364,400.4L540.364,410.8L528.545,410.8L528.545,421.2L516.727,421.2L516.727,431.6L504.909,431.6L504.909,442L499.091,442L499.091,431.6L487.273,431.6L487.273,421.2L475.455,421.2L475.455,410.8L463.636,410.8L463.636,400.4L451.818,400.4L451.818,390L440,390L440,364.8L451.818,364.8L451.818,354.4L463.636,354.4L463.636,344L481.273,344L481.273,354.4L493.091,354.4L493.091,364.8L510.909,364.8L510.909,354.4L522.727,354.4L522.727,344L540.364,344L540.364,354.4L552.182,354.4Z" style="fill:none;fill-rule:nonzero;stroke:rgb(245,73,73);stroke-width:6px;"/>
    </g>
    <g transform="matrix(1,0,0,1,-250,-99.9836)">
        <rect x="500" y="112" width="4" height="131" style="fill:rgb(245,73,73);"/>
    </g>
    <g transform="matrix(1,0,0,1,-250,-99.9836)">
        <path d="M508.6,105.909L512.2,105.909L512.2,102L521,102L521,105.909L524.6,105.909L524.6,109.818L528.2,109.818L528.2,113.727L531.8,113.727L531.8,117.636L535.4,117.636L535.4,121.545L539,121.545L539,123.455L535.4,123.455L535.4,127.364L531.8,127.364L531.8,131.273L528.2,131.273L528.2,135.182L524.6,135.182L524.6,139.091L521,139.091L521,143L512.2,143L512.2,139.091L508.6,139.091L508.6,135.182L505,135.182L505,129.364L508.6,129.364L508.6,125.455L512.2,125.455L512.2,119.545L508.6,119.545L508.6,115.636L505,115.636L505,109.818L508.6,109.818L508.6,105.909Z" style="fill:white;fill-rule:nonzero;stroke:rgb(210,55,55);stroke-width:2px;"/>
    </g>
    <g transform="matrix(1,0,0,1,-250,-99.9836)">
        <path d="M376.545,368L376.545,362.5L370.091,362.5L370.091,357L357.182,357L357.182,362.5L350.727,362.5L350.727,368L344.273,368L344.273,362.5L337.818,362.5L337.818,357L324.909,357L324.909,362.5L318.455,362.5L318.455,368L312,368L312,384.5L318.455,384.5L318.455,390L324.909,390L324.909,395.5L331.364,395.5L331.364,401L337.818,401L337.818,406.5L344.273,406.5L344.273,412L350.727,412L350.727,406.5L357.182,406.5L357.182,401L363.636,401L363.636,395.5L370.091,395.5L370.091,390L376.545,390L376.545,384.5L383,384.5L383,368L376.545,368Z" style="fill:white;fill-rule:nonzero;"/>
    </g>
    <g transform="matrix(1,0,0,1,-250,-99.9836)">
        <path d="M686.545,368L686.545,362.5L680.091,362.5L680.091,357L667.182,357L667.182,362.5L660.727,362.5L660.727,368L654.273,368L654.273,362.5L647.818,362.5L647.818,357L634.909,357L634.909,362.5L628.455,362.5L628.455,368L622,368L622,384.5L628.455,384.5L628.455,390L634.909,390L634.909,395.5L641.364,395.5L641.364,401L647.818,401L647.818,406.5L654.273,406.5L654.273,412L660.727,412L660.727,406.5L667.182,406.5L667.182,401L673.636,401L673.636,395.5L680.091,395.5L680.091,390L686.545,390L686.545,384.5L693,384.5L693,368L686.545,368Z" style="fill:white;fill-rule:nonzero;"/>
    </g>
    <g transform="matrix(1,0,0,1,-250,-99.9836)">
        <path d="M449.454,584.6L449.454,600L363.545,600L363.545,584.6L380.727,584.6L380.727,569.3L397.909,569.3L397.909,554L415.091,554L415.091,569.3L432.273,569.3L432.273,584.6L449.454,584.6Z" style="fill:white;fill-rule:nonzero;"/>
    </g>
</svg>
