<?xml version="1.0" standalone="no"?>
<!DOCTYPE svg PUBLIC "-//W3C//DTD SVG 20010904//EN"
 "http://www.w3.org/TR/2001/REC-SVG-20010904/DTD/svg10.dtd">
<svg version="1.0" xmlns="http://www.w3.org/2000/svg"
 width="700.000000pt" height="700.000000pt" viewBox="0 0 700.000000 700.000000"
 preserveAspectRatio="xMidYMid meet">
<metadata>
Created by potrace 1.14, written by Peter Selinger 2001-2017
</metadata>
<g transform="translate(0.000000,700.000000) scale(0.100000,-0.100000)"
fill="#000000" stroke="none">
<path d="M3660 6960 c0 -25 -4 -30 -25 -30 -20 0 -25 -5 -25 -25 0 -20 -5 -25
-25 -25 -20 0 -25 -5 -25 -25 0 -21 -5 -25 -30 -25 l-30 0 0 -899 0 -900 -47
-3 -48 -3 -3 -107 -3 -108 -119 0 -120 0 0 -105 0 -105 -120 0 -120 0 0 -110
0 -110 -120 0 -120 0 0 -105 0 -105 -120 0 -120 0 0 -110 0 -110 -120 0 -120
0 0 -210 0 -210 -110 0 -110 0 0 110 0 110 -120 0 -120 0 0 105 0 105 -120 0
-120 0 0 105 0 105 -120 0 -120 0 0 -105 0 -105 -120 0 -120 0 0 -105 0 -105
-120 0 -120 0 0 -110 0 -110 -120 0 -120 0 0 -105 0 -105 -120 0 -120 0 0
-105 0 -105 -150 0 -150 0 0 -1555 0 -1555 795 0 795 0 0 110 0 110 120 0 120
0 0 105 0 105 120 0 120 0 0 105 0 105 120 0 120 0 0 -105 0 -105 120 0 120 0
0 -105 0 -105 120 0 120 0 0 -110 0 -110 720 0 719 0 3 108 3 107 123 3 122 3
0 104 0 105 120 0 120 0 0 105 0 105 120 0 120 0 0 -105 0 -105 120 0 120 0 0
-105 0 -105 120 0 120 0 0 -110 0 -110 780 0 780 0 0 1555 0 1555 -150 0 -150
0 0 105 0 105 -120 0 -120 0 0 105 0 105 -120 0 -120 0 0 110 0 110 -120 0
-120 0 0 105 0 105 -120 0 -120 0 0 105 0 105 -120 0 -120 0 0 -105 0 -105
-120 0 -120 0 0 -105 0 -105 -120 0 -120 0 0 -110 0 -111 -87 3 -88 3 -3 207
-2 207 -118 3 -117 3 -3 108 -3 107 -119 0 -120 0 0 105 0 105 -120 0 -120 0
0 110 0 110 -120 0 -120 0 0 105 0 105 -120 0 -120 0 0 110 0 110 -40 0 -40 0
0 730 0 730 25 0 c20 0 25 -5 25 -25 0 -20 5 -25 25 -25 21 0 25 -5 25 -30 l0
-31 73 3 c70 3 72 4 75 31 3 21 9 27 28 27 19 0 24 5 24 25 0 20 5 25 25 25
21 0 25 5 25 30 0 25 4 30 25 30 20 0 25 5 25 25 0 20 5 25 25 25 21 0 25 5
25 30 0 25 4 30 25 30 20 0 25 5 25 25 0 20 -5 25 -25 25 -21 0 -25 5 -25 30
0 25 -4 30 -25 30 -20 0 -25 5 -25 25 0 20 -5 25 -25 25 -21 0 -25 5 -25 30 0
25 -4 30 -25 30 -20 0 -25 5 -25 25 0 20 -5 25 -24 25 -19 0 -25 6 -28 28 -3
26 -5 27 -75 30 l-73 3 0 -31z m120 -30 c0 -25 4 -30 25 -30 20 0 25 -5 25
-25 0 -20 5 -25 25 -25 21 0 25 -5 25 -30 0 -25 4 -30 25 -30 20 0 25 -5 25
-25 0 -20 5 -25 25 -25 24 0 25 -3 25 -55 0 -52 -1 -55 -25 -55 -20 0 -25 -5
-25 -25 0 -20 -5 -25 -25 -25 -21 0 -25 -5 -25 -30 0 -25 -4 -30 -25 -30 -20
0 -25 -5 -25 -25 0 -20 -5 -25 -25 -25 -21 0 -25 -5 -25 -31 0 -30 -1 -30 -47
-27 -44 3 -48 5 -51 31 -3 21 -9 27 -28 27 -19 0 -24 5 -24 25 0 20 -5 25 -25
25 -20 0 -25 5 -25 25 0 20 5 25 25 25 21 0 25 5 25 30 0 25 4 30 25 30 24 0
25 3 25 55 0 52 -1 55 -25 55 -20 0 -25 5 -25 24 0 18 -6 25 -22 28 -17 2 -24
11 -26 31 -3 23 0 27 22 27 21 0 26 5 26 25 0 20 5 25 25 25 20 0 25 5 25 23
0 33 7 37 57 37 41 0 43 -1 43 -30z m-172 -192 c3 -22 9 -28 28 -28 19 0 24
-5 24 -25 0 -20 -5 -25 -24 -25 -19 0 -25 -6 -28 -27 -2 -20 -9 -29 -25 -31
-22 -3 -23 -1 -23 83 0 84 1 86 23 83 16 -2 23 -11 25 -30z m-2378 -3373 c0
-35 0 -35 45 -35 l45 0 0 -40 0 -40 45 0 45 0 0 40 0 40 45 0 c45 0 45 0 45
35 l0 35 90 0 90 0 0 -35 c0 -35 0 -35 45 -35 l45 0 0 -40 0 -40 45 0 45 0 0
-114 0 -115 -42 -3 c-42 -3 -43 -4 -46 -40 -3 -38 -4 -38 -48 -38 l-44 0 0
-40 0 -40 -45 0 c-45 0 -45 0 -45 -34 0 -34 -1 -35 -42 -38 -42 -3 -43 -4 -46
-40 -3 -38 -4 -38 -48 -38 l-44 0 0 -40 0 -40 -45 0 -45 0 0 40 0 40 -44 0
c-44 0 -45 0 -48 38 -3 36 -4 37 -45 40 -42 3 -43 4 -43 38 0 34 0 34 -45 34
l-45 0 0 40 0 40 -44 0 c-44 0 -45 0 -48 38 -3 36 -4 37 -45 40 l-43 3 0 115
0 114 45 0 45 0 0 40 0 40 45 0 c45 0 45 0 45 35 l0 35 90 0 90 0 0 -35z
m4340 0 c0 -35 0 -35 45 -35 l45 0 0 -40 0 -40 45 0 45 0 0 40 0 40 45 0 c45
0 45 0 45 35 l0 35 90 0 90 0 0 -35 c0 -35 0 -35 45 -35 l45 0 0 -40 0 -40 45
0 45 0 0 -114 0 -115 -42 -3 c-42 -3 -43 -4 -46 -40 -3 -38 -4 -38 -48 -38
l-44 0 0 -40 0 -40 -45 0 c-45 0 -45 0 -45 -34 0 -34 -1 -35 -42 -38 -42 -3
-43 -4 -46 -40 -3 -38 -4 -38 -48 -38 l-44 0 0 -40 0 -40 -45 0 -45 0 0 40 0
40 -44 0 c-44 0 -45 0 -48 38 -3 36 -4 37 -45 40 -42 3 -43 4 -43 38 0 34 0
34 -45 34 l-45 0 0 40 0 40 -44 0 c-44 0 -45 0 -48 38 -3 36 -4 37 -45 40
l-43 3 0 115 0 114 45 0 45 0 0 40 0 40 45 0 c45 0 45 0 45 35 l0 35 90 0 90
0 0 -35z"/>
</g>
</svg>
